<svg xmlns="http://www.w3.org/2000/svg" width="1100" height="1290" viewBox="0 0 1100 1290">
<defs><marker id="a" markerWidth="10" markerHeight="10" refX="9" refY="3" orient="auto"><path d="M0,0 L0,6 L9,3 z" fill="#546e7a"/></marker></defs>
<style>.t{font:700 22px Arial;fill:#172033}.s{font:17px Arial;fill:#172033}.e{stroke:#546e7a;stroke-width:3;fill:none;marker-end:url(#a)}.lbl{font:15px Arial;fill:#455a64}</style>
<text x="550" y="32" text-anchor="middle" class="t">Mutantní duha</text>
<path d="M550.0,110 L550.0,145" class="e"/>
<path d="M550.0,210 L550.0,260" class="e"/>
<path d="M550.0,325 L550.0,375" class="e"/>
<path d="M550.0,440 L550.0,490" class="e"/>
<path d="M550.0,555 L550.0,605" class="e"/>
<path d="M550.0,670 L550.0,720" class="e"/>
<path d="M550.0,815 L550.0,845.0 L885.0,845.0 L885.0,875" class="e"/>
<text x="717.5" y="838.0" class="lbl">ano</text>
<path d="M550.0,815 L550.0,1000" class="e"/>
<text x="558.0" y="907.5" class="lbl">ne</text>
<path d="M885.0,945 L885.0,972.5 L550.0,972.5 L550.0,1000" class="e"/>
<path d="M550.0,1095 L550.0,375" class="e"/>
<text x="558.0" y="735.0" class="lbl">ne</text>
<path d="M550.0,1095 L550.0,1150" class="e"/>
<text x="558.0" y="1122.5" class="lbl">ano</text>
<rect x="440" y="50" width="220" height="60" rx="28" fill="#dff5e8" stroke="#1565c0" stroke-width="2"/>
<text x="550.0" y="86.0" text-anchor="middle" class="s">Start</text>
<rect x="420" y="145" width="260" height="65" rx="10" fill="#eef6ff" stroke="#1565c0" stroke-width="2"/>
<text x="550.0" y="183.5" text-anchor="middle" class="s">Načti délku čáry</text>
<rect x="420" y="260" width="260" height="65" rx="10" fill="#eef6ff" stroke="#1565c0" stroke-width="2"/>
<text x="550.0" y="298.5" text-anchor="middle" class="s">Načti šířku čáry</text>
<rect x="420" y="375" width="260" height="65" rx="10" fill="#eef6ff" stroke="#1565c0" stroke-width="2"/>
<text x="550.0" y="413.5" text-anchor="middle" class="s">Vyber náhodnou barvu</text>
<rect x="420" y="490" width="260" height="65" rx="10" fill="#eef6ff" stroke="#1565c0" stroke-width="2"/>
<text x="550.0" y="528.5" text-anchor="middle" class="s">Nakresli čáru</text>
<rect x="420" y="605" width="260" height="65" rx="10" fill="#eef6ff" stroke="#1565c0" stroke-width="2"/>
<text x="550.0" y="643.5" text-anchor="middle" class="s">Otoč se náhodně</text>
<polygon points="550.0,720 680,767.5 550.0,815 420,767.5" fill="#fff4cc" stroke="#1565c0" stroke-width="2"/>
<text x="550.0" y="763.0" text-anchor="middle" class="s">Je želva mimo</text>
<text x="550.0" y="784.0" text-anchor="middle" class="s">hranice?</text>
<rect x="750" y="875" width="270" height="70" rx="10" fill="#eef6ff" stroke="#1565c0" stroke-width="2"/>
<text x="885.0" y="905.5" text-anchor="middle" class="s">Přesuň ji na</text>
<text x="885.0" y="926.5" text-anchor="middle" class="s">náhodné místo</text>
<polygon points="550.0,1000 680,1047.5 550.0,1095 420,1047.5" fill="#fff4cc" stroke="#1565c0" stroke-width="2"/>
<text x="550.0" y="1053.5" text-anchor="middle" class="s">Byl program ukončen?</text>
<rect x="440" y="1150" width="220" height="60" rx="28" fill="#ffe3e3" stroke="#1565c0" stroke-width="2"/>
<text x="550.0" y="1186.0" text-anchor="middle" class="s">Konec</text>
</svg>