<svg xmlns="http://www.w3.org/2000/svg" width="1100" height="1090" viewBox="0 0 1100 1090">
<defs><marker id="a" markerWidth="10" markerHeight="10" refX="9" refY="3" orient="auto"><path d="M0,0 L0,6 L9,3 z" fill="#546e7a"/></marker></defs>
<style>.t{font:700 22px Arial;fill:#172033}.s{font:17px Arial;fill:#172033}.e{stroke:#546e7a;stroke-width:3;fill:none;marker-end:url(#a)}.lbl{font:15px Arial;fill:#455a64}</style>
<text x="550" y="32" text-anchor="middle" class="t">Zvířecí kvíz</text>
<path d="M550.0,110 L550.0,145" class="e"/>
<path d="M550.0,210 L550.0,260" class="e"/>
<path d="M550.0,325 L550.0,375" class="e"/>
<path d="M550.0,470 L550.0,502.5 L210.0,502.5 L210.0,535" class="e"/>
<text x="380.0" y="495.5" class="lbl">ano</text>
<path d="M550.0,470 L550.0,502.5 L885.0,502.5 L885.0,535" class="e"/>
<text x="717.5" y="495.5" class="lbl">ne</text>
<path d="M210.0,595 L210.0,637.5 L550.0,637.5 L550.0,680" class="e"/>
<path d="M885.0,595 L885.0,637.5 L550.0,637.5 L550.0,680" class="e"/>
<path d="M550.0,775 L550.0,260" class="e"/>
<text x="558.0" y="517.5" class="lbl">ano</text>
<path d="M550.0,775 L550.0,835" class="e"/>
<text x="558.0" y="805.0" class="lbl">ne</text>
<path d="M550.0,900 L550.0,950" class="e"/>
<rect x="440" y="50" width="220" height="60" rx="28" fill="#dff5e8" stroke="#1565c0" stroke-width="2"/>
<text x="550.0" y="86.0" text-anchor="middle" class="s">Start</text>
<rect x="420" y="145" width="260" height="65" rx="10" fill="#eef6ff" stroke="#1565c0" stroke-width="2"/>
<text x="550.0" y="183.5" text-anchor="middle" class="s">Nastav skóre na 0</text>
<rect x="420" y="260" width="260" height="65" rx="10" fill="#eef6ff" stroke="#1565c0" stroke-width="2"/>
<text x="550.0" y="298.5" text-anchor="middle" class="s">Polož otázku</text>
<polygon points="550.0,375 680,422.5 550.0,470 420,422.5" fill="#fff4cc" stroke="#1565c0" stroke-width="2"/>
<text x="550.0" y="428.5" text-anchor="middle" class="s">Je odpověď správná?</text>
<rect x="100" y="535" width="220" height="60" rx="10" fill="#eef6ff" stroke="#1565c0" stroke-width="2"/>
<text x="210.0" y="571.0" text-anchor="middle" class="s">Přičti bod</text>
<rect x="760" y="535" width="250" height="60" rx="10" fill="#eef6ff" stroke="#1565c0" stroke-width="2"/>
<text x="885.0" y="571.0" text-anchor="middle" class="s">Zobraz správnou odpověď</text>
<polygon points="550.0,680 680,727.5 550.0,775 420,727.5" fill="#fff4cc" stroke="#1565c0" stroke-width="2"/>
<text x="550.0" y="733.5" text-anchor="middle" class="s">Zbývá další otázka?</text>
<rect x="420" y="835" width="260" height="65" rx="10" fill="#eef6ff" stroke="#1565c0" stroke-width="2"/>
<text x="550.0" y="873.5" text-anchor="middle" class="s">Zobraz skóre</text>
<rect x="440" y="950" width="220" height="60" rx="28" fill="#ffe3e3" stroke="#1565c0" stroke-width="2"/>
<text x="550.0" y="986.0" text-anchor="middle" class="s">Konec</text>
</svg>