<svg xmlns="http://www.w3.org/2000/svg" width="1100" height="1320" viewBox="0 0 1100 1320">
<defs><marker id="a" markerWidth="10" markerHeight="10" refX="9" refY="3" orient="auto"><path d="M0,0 L0,6 L9,3 z" fill="#546e7a"/></marker></defs>
<style>.t{font:700 22px Arial;fill:#172033}.s{font:17px Arial;fill:#172033}.e{stroke:#546e7a;stroke-width:3;fill:none;marker-end:url(#a)}.lbl{font:15px Arial;fill:#455a64}</style>
<text x="550" y="32" text-anchor="middle" class="t">Stavitel robota</text>
<path d="M550.0,110 L550.0,145" class="e"/>
<path d="M550.0,220 L550.0,270" class="e"/>
<path d="M550.0,345 L550.0,395" class="e"/>
<path d="M550.0,455 L550.0,505" class="e"/>
<path d="M550.0,565 L550.0,615" class="e"/>
<path d="M550.0,675 L550.0,725" class="e"/>
<path d="M550.0,785 L550.0,835" class="e"/>
<path d="M550.0,895 L550.0,945" class="e"/>
<path d="M550.0,1005 L550.0,1055" class="e"/>
<path d="M550.0,1125 L550.0,1180" class="e"/>
<rect x="440" y="50" width="220" height="60" rx="28" fill="#dff5e8" stroke="#1565c0" stroke-width="2"/>
<text x="550.0" y="86.0" text-anchor="middle" class="s">Start</text>
<rect x="420" y="145" width="260" height="75" rx="10" fill="#eef6ff" stroke="#1565c0" stroke-width="2"/>
<text x="550.0" y="178.0" text-anchor="middle" class="s">Nastav rychlost</text>
<text x="550.0" y="199.0" text-anchor="middle" class="s">a pozadí</text>
<rect x="420" y="270" width="260" height="75" rx="10" fill="#eef6ff" stroke="#1565c0" stroke-width="2"/>
<text x="550.0" y="303.0" text-anchor="middle" class="s">Definuj funkci</text>
<text x="550.0" y="324.0" text-anchor="middle" class="s">rectangle()</text>
<rect x="420" y="395" width="260" height="60" rx="10" fill="#eef6ff" stroke="#1565c0" stroke-width="2"/>
<text x="550.0" y="431.0" text-anchor="middle" class="s">Nakresli chodidla</text>
<rect x="420" y="505" width="260" height="60" rx="10" fill="#eef6ff" stroke="#1565c0" stroke-width="2"/>
<text x="550.0" y="541.0" text-anchor="middle" class="s">Nakresli nohy</text>
<rect x="420" y="615" width="260" height="60" rx="10" fill="#eef6ff" stroke="#1565c0" stroke-width="2"/>
<text x="550.0" y="651.0" text-anchor="middle" class="s">Nakresli tělo</text>
<rect x="420" y="725" width="260" height="60" rx="10" fill="#eef6ff" stroke="#1565c0" stroke-width="2"/>
<text x="550.0" y="761.0" text-anchor="middle" class="s">Nakresli ruce</text>
<rect x="420" y="835" width="260" height="60" rx="10" fill="#eef6ff" stroke="#1565c0" stroke-width="2"/>
<text x="550.0" y="871.0" text-anchor="middle" class="s">Nakresli krk</text>
<rect x="420" y="945" width="260" height="60" rx="10" fill="#eef6ff" stroke="#1565c0" stroke-width="2"/>
<text x="550.0" y="981.0" text-anchor="middle" class="s">Nakresli hlavu</text>
<rect x="420" y="1055" width="260" height="70" rx="10" fill="#eef6ff" stroke="#1565c0" stroke-width="2"/>
<text x="550.0" y="1096.0" text-anchor="middle" class="s">Nakresli oči a ústa</text>
<rect x="440" y="1180" width="220" height="60" rx="28" fill="#ffe3e3" stroke="#1565c0" stroke-width="2"/>
<text x="550.0" y="1216.0" text-anchor="middle" class="s">Konec</text>
</svg>