<svg xmlns="http://www.w3.org/2000/svg" width="1100" height="1230" viewBox="0 0 1100 1230">
<defs><marker id="a" markerWidth="10" markerHeight="10" refX="9" refY="3" orient="auto"><path d="M0,0 L0,6 L9,3 z" fill="#546e7a"/></marker></defs>
<style>.t{font:700 22px Arial;fill:#172033}.s{font:17px Arial;fill:#172033}.e{stroke:#546e7a;stroke-width:3;fill:none;marker-end:url(#a)}.lbl{font:15px Arial;fill:#455a64}</style>
<text x="550" y="32" text-anchor="middle" class="t">Hvězdná noc</text>
<path d="M550.0,110 L550.0,145" class="e"/>
<path d="M550.0,210 L550.0,260" class="e"/>
<path d="M550.0,335 L550.0,385" class="e"/>
<path d="M550.0,445 L550.0,495" class="e"/>
<path d="M550.0,555 L550.0,605" class="e"/>
<path d="M550.0,665 L550.0,715" class="e"/>
<path d="M550.0,775 L550.0,825" class="e"/>
<path d="M550.0,885 L550.0,935" class="e"/>
<path d="M550.0,1030 L550.0,385" class="e"/>
<text x="558.0" y="707.5" class="lbl">ne</text>
<path d="M550.0,1030 L550.0,1090" class="e"/>
<text x="558.0" y="1060.0" class="lbl">ano</text>
<rect x="440" y="50" width="220" height="60" rx="28" fill="#dff5e8" stroke="#1565c0" stroke-width="2"/>
<text x="550.0" y="86.0" text-anchor="middle" class="s">Start</text>
<rect x="420" y="145" width="260" height="65" rx="10" fill="#eef6ff" stroke="#1565c0" stroke-width="2"/>
<text x="550.0" y="183.5" text-anchor="middle" class="s">Nastav noční pozadí</text>
<rect x="420" y="260" width="260" height="75" rx="10" fill="#eef6ff" stroke="#1565c0" stroke-width="2"/>
<text x="550.0" y="293.0" text-anchor="middle" class="s">Definuj funkci</text>
<text x="550.0" y="314.0" text-anchor="middle" class="s">draw_star()</text>
<rect x="420" y="385" width="260" height="60" rx="10" fill="#eef6ff" stroke="#1565c0" stroke-width="2"/>
<text x="550.0" y="421.0" text-anchor="middle" class="s">Vyber počet cípů</text>
<rect x="420" y="495" width="260" height="60" rx="10" fill="#eef6ff" stroke="#1565c0" stroke-width="2"/>
<text x="550.0" y="531.0" text-anchor="middle" class="s">Vyber velikost</text>
<rect x="420" y="605" width="260" height="60" rx="10" fill="#eef6ff" stroke="#1565c0" stroke-width="2"/>
<text x="550.0" y="641.0" text-anchor="middle" class="s">Vyber barvu</text>
<rect x="420" y="715" width="260" height="60" rx="10" fill="#eef6ff" stroke="#1565c0" stroke-width="2"/>
<text x="550.0" y="751.0" text-anchor="middle" class="s">Vyber souřadnice</text>
<rect x="420" y="825" width="260" height="60" rx="10" fill="#eef6ff" stroke="#1565c0" stroke-width="2"/>
<text x="550.0" y="861.0" text-anchor="middle" class="s">Nakresli hvězdu</text>
<polygon points="550.0,935 680,982.5 550.0,1030 420,982.5" fill="#fff4cc" stroke="#1565c0" stroke-width="2"/>
<text x="550.0" y="988.5" text-anchor="middle" class="s">Byl program ukončen?</text>
<rect x="440" y="1090" width="220" height="60" rx="28" fill="#ffe3e3" stroke="#1565c0" stroke-width="2"/>
<text x="550.0" y="1126.0" text-anchor="middle" class="s">Konec</text>
</svg>