<svg xmlns="http://www.w3.org/2000/svg" width="1100" height="1170" viewBox="0 0 1100 1170">
<defs><marker id="a" markerWidth="10" markerHeight="10" refX="9" refY="3" orient="auto"><path d="M0,0 L0,6 L9,3 z" fill="#546e7a"/></marker></defs>
<style>.t{font:700 22px Arial;fill:#172033}.s{font:17px Arial;fill:#172033}.e{stroke:#546e7a;stroke-width:3;fill:none;marker-end:url(#a)}.lbl{font:15px Arial;fill:#455a64}</style>
<text x="550" y="32" text-anchor="middle" class="t">Generátor hesel</text>
<path d="M550.0,115 L550.0,145" class="e"/>
<path d="M550.0,220 L550.0,270" class="e"/>
<path d="M550.0,345 L550.0,395" class="e"/>
<path d="M550.0,460 L550.0,510" class="e"/>
<path d="M550.0,585 L550.0,635" class="e"/>
<path d="M550.0,695 L550.0,745" class="e"/>
<path d="M550.0,805 L550.0,855" class="e"/>
<path d="M550.0,955 L550.0,145" class="e"/>
<text x="558.0" y="550.0" class="lbl">ano</text>
<path d="M550.0,955 L550.0,1030" class="e"/>
<text x="558.0" y="992.5" class="lbl">ne</text>
<rect x="440" y="55" width="220" height="60" rx="28" fill="#dff5e8" stroke="#1565c0" stroke-width="2"/>
<text x="550.0" y="91.0" text-anchor="middle" class="s">Start</text>
<rect x="420" y="145" width="260" height="75" rx="10" fill="#eef6ff" stroke="#1565c0" stroke-width="2"/>
<text x="550.0" y="178.0" text-anchor="middle" class="s">Vyber náhodné</text>
<text x="550.0" y="199.0" text-anchor="middle" class="s">přídavné jméno</text>
<rect x="420" y="270" width="260" height="75" rx="10" fill="#eef6ff" stroke="#1565c0" stroke-width="2"/>
<text x="550.0" y="303.0" text-anchor="middle" class="s">Vyber náhodné</text>
<text x="550.0" y="324.0" text-anchor="middle" class="s">podstatné jméno</text>
<rect x="420" y="395" width="260" height="65" rx="10" fill="#eef6ff" stroke="#1565c0" stroke-width="2"/>
<text x="550.0" y="433.5" text-anchor="middle" class="s">Vyber náhodné číslo</text>
<rect x="420" y="510" width="260" height="75" rx="10" fill="#eef6ff" stroke="#1565c0" stroke-width="2"/>
<text x="550.0" y="543.0" text-anchor="middle" class="s">Vyber náhodný</text>
<text x="550.0" y="564.0" text-anchor="middle" class="s">speciální znak</text>
<rect x="440" y="635" width="220" height="60" rx="10" fill="#eef6ff" stroke="#1565c0" stroke-width="2"/>
<text x="550.0" y="671.0" text-anchor="middle" class="s">Sestav heslo</text>
<rect x="440" y="745" width="220" height="60" rx="10" fill="#eef6ff" stroke="#1565c0" stroke-width="2"/>
<text x="550.0" y="781.0" text-anchor="middle" class="s">Zobraz heslo</text>
<polygon points="550.0,855 680,905.0 550.0,955 420,905.0" fill="#fff4cc" stroke="#1565c0" stroke-width="2"/>
<text x="550.0" y="900.5" text-anchor="middle" class="s">Chce uživatel</text>
<text x="550.0" y="921.5" text-anchor="middle" class="s">další heslo?</text>
<rect x="440" y="1030" width="220" height="60" rx="28" fill="#ffe3e3" stroke="#1565c0" stroke-width="2"/>
<text x="550.0" y="1066.0" text-anchor="middle" class="s">Konec</text>
</svg>